<?xml version="1.0" encoding="UTF-8" standalone="no"?>
<svg
   version="1.1"
   width="200"
   height="51"
   viewBox="0 0 200 51"
   style="clip-rule:evenodd;fill-rule:evenodd;shape-rendering:geometricPrecision"
   id="svg14"
   sodipodi:docname="logo.svg"
   inkscape:version="1.2.1 (9c6d41e410, 2022-07-14)"
   xmlns:inkscape="http://www.inkscape.org/namespaces/inkscape"
   xmlns:sodipodi="http://sodipodi.sourceforge.net/DTD/sodipodi-0.dtd"
   xmlns="http://www.w3.org/2000/svg"
   xmlns:svg="http://www.w3.org/2000/svg">
  <defs
     id="defs18" />
  <sodipodi:namedview
     id="namedview16"
     pagecolor="#ffffff"
     bordercolor="#666666"
     borderopacity="1.0"
     inkscape:showpageshadow="2"
     inkscape:pageopacity="0.0"
     inkscape:pagecheckerboard="0"
     inkscape:deskcolor="#d1d1d1"
     showgrid="false"
     inkscape:zoom="4.0117188"
     inkscape:cx="83.006816"
     inkscape:cy="31.532619"
     inkscape:window-width="2046"
     inkscape:window-height="1360"
     inkscape:window-x="2553"
     inkscape:window-y="0"
     inkscape:window-maximized="0"
     inkscape:current-layer="svg14" />
  <g
     id="Layer_Main"
     style="fill:#b3b3b3"
     transform="matrix(0.65312296,0,0,0.65312296,4.6000653,4.6000653)">
    <path
       style="fill:#b3b3b3"
       d="m 33.206,5.847 c 13.898,0.631 24.976,12.1 24.976,26.153 0,4.337 -1.057,8.428 -2.924,12.03 C 48.757,40.326 43.064,34.873 39.054,27.927 35.043,20.98 33.164,13.33 33.206,5.847 Z M 25.6,48 h 5.185 c -0.56,-4.385 -1.98,-8.733 -4.328,-12.8 -2.348,-4.067 -5.404,-7.471 -8.921,-10.148 l -2.592,4.491 -2.016,-1.164 6.4,-11.085 2.016,1.163 -2.593,4.49 C 22.828,24.655 27.304,25.6 32,25.6 c 4.696,0 9.172,-0.945 13.249,-2.652 l -2.593,-4.491 2.016,-1.163 6.4,11.085 -2.016,1.164 -2.592,-4.49 c -3.518,2.676 -6.573,6.08 -8.921,10.147 -2.349,4.067 -3.768,8.415 -4.328,12.8 H 38.4 v 2.327 H 25.6 Z M 54.051,46.119 C 49.395,53.374 41.258,58.182 32,58.182 22.742,58.182 14.605,53.374 9.949,46.119 16.408,42.342 23.98,40.146 32,40.146 c 8.02,0 15.592,2.196 22.051,5.973 z M 8.742,44.03 C 6.874,40.428 5.818,36.337 5.818,32 5.818,17.947 16.896,6.478 30.794,5.847 30.836,13.33 28.957,20.979 24.946,27.927 20.936,34.872 15.243,40.326 8.742,44.03 Z M 32,2.909 C 48.064,2.909 61.091,15.936 61.091,32 61.091,48.064 48.064,61.091 32,61.091 15.936,61.091 2.909,48.064 2.909,32 2.909,15.936 15.936,2.909 32,2.909 Z"
       id="path11" />
  </g>
  <text
     xml:space="preserve"
     style="font-style:normal;font-variant:normal;font-weight:normal;font-stretch:normal;font-size:17.3333px;line-height:125%;font-family:sans-serif;-inkscape-font-specification:'sans-serif, Normal';font-variant-ligatures:normal;font-variant-caps:normal;font-variant-numeric:normal;font-variant-east-asian:normal;letter-spacing:0px;word-spacing:0px;fill:#cccccc;fill-opacity:1;stroke:none;stroke-width:0.616146px;stroke-linecap:butt;stroke-linejoin:miter;stroke-opacity:1"
     x="53.441269"
     y="18.996424"
     id="text855"><tspan
       sodipodi:role="line"
       x="53.441269"
       y="18.996424"
       id="tspan857"
       style="font-style:normal;font-variant:normal;font-weight:normal;font-stretch:normal;font-size:17.33333333px;font-family:sans-serif;-inkscape-font-specification:'sans-serif, Normal';font-variant-ligatures:normal;font-variant-caps:normal;font-variant-numeric:normal;font-variant-east-asian:normal;fill:#cccccc;stroke-width:0.616146px">mastersign</tspan></text>
  <text
     xml:space="preserve"
     style="font-style:normal;font-variant:normal;font-weight:bold;font-stretch:normal;font-size:20px;line-height:125%;font-family:sans-serif;-inkscape-font-specification:'sans-serif, Bold';font-variant-ligatures:normal;font-variant-caps:normal;font-variant-numeric:normal;font-variant-east-asian:normal;letter-spacing:0px;word-spacing:0px;fill:#cccccc;fill-opacity:1;stroke:none;stroke-width:1px;stroke-linecap:butt;stroke-linejoin:miter;stroke-opacity:1"
     x="51.561684"
     y="41.11549"
     id="text967"><tspan
       sodipodi:role="line"
       id="tspan965"
       x="51.561684"
       y="41.11549">ConfigModel</tspan></text>
</svg>
